# xmcd CD database file
#
# Track frame offsets:
#	150
#	5607
#	21885
#	41275
#	58695
#	73720
#	87390
#	108360
#	128197
#	142390
#	158235
#
# Disc length: 2387 seconds
#
# Revision: 0
# Processed by: cddbd v1.5.1PL2 Copyright (c) Steve Scherf et al.
# Submitted via: CDex 1.51
#
DISCID=9809510b
DTITLE=ラッツ＆スター - Soul Vacation
DYEAR=1900
DGENRE=Pop
TTITLE0=We are RATS and STAR
TTITLE1=楽しき街角
TTITLE2=今夜はフィジカル
TTITLE3=裏切りの都会(Back Stabber Down Town)
TTITLE4=One Dream Night
TTITLE5=星空のサーカス
TTITLE6=Tシャツに口紅
TTITLE7=真夜中のダイヤモンド
TTITLE8=女って
TTITLE9=月へはせる想い(Warping the Moon)
TTITLE10=Miss You
EXTD=
EXTT0=
EXTT1=
EXTT2=
EXTT3=
EXTT4=
EXTT5=
EXTT6=
EXTT7=
EXTT8=
EXTT9=
EXTT10=
PLAYORDER=
